<?xml version="1.0" encoding="iso-8859-1"?>
<!-- Generator: Adobe Illustrator 19.0.0, SVG Export Plug-In . SVG Version: 6.00 Build 0)  -->
<svg version="1.1" id="Layer_1" xmlns="http://www.w3.org/2000/svg" xmlns:xlink="http://www.w3.org/1999/xlink" x="0px" y="0px"
	 viewBox="0 0 512.001 512.001" style="enable-background:new 0 0 512.001 512.001;" xml:space="preserve">
<path style="fill:#D1D3D4;" d="M345.589,236.508h-89.589h-89.59c-10.763,0-19.488,8.726-19.488,19.488s8.726,19.488,19.488,19.488
	h89.59h89.589c10.763,0,19.488-8.726,19.488-19.488S356.352,236.508,345.589,236.508z"/>
<path style="fill:#BFC1C2;" d="M345.589,236.508h-89.589v38.977h89.589c10.763,0,19.488-8.726,19.488-19.488
	S356.352,236.508,345.589,236.508z"/>
<path style="fill:#D1D3D4;" d="M82.567,348.538H12.992C5.817,348.538,0,342.721,0,335.545v-159.09
	c0-7.176,5.817-12.992,12.992-12.992h69.575V348.538z"/>
<g>
	<path style="fill:#BFC1C2;" d="M429.434,163.464h69.575c7.176,0,12.992,5.817,12.992,12.992v159.09
		c0,7.176-5.817,12.992-12.992,12.992h-69.575V163.464z"/>
	<path style="fill:#BFC1C2;" d="M153.419,382.424H82.567c-7.176,0-12.992-5.817-12.992-12.992V142.569
		c0-7.176,5.817-12.992,12.992-12.992h70.852c7.176,0,12.992,5.817,12.992,12.992v226.863
		C166.411,376.608,160.594,382.424,153.419,382.424z"/>
</g>
<path style="fill:#A7A9AC;" d="M358.582,129.577h70.852c7.176,0,12.992,5.817,12.992,12.992v226.863
	c0,7.176-5.817,12.992-12.992,12.992h-70.852c-7.176,0-12.992-5.817-12.992-12.992V142.569
	C345.589,135.394,351.406,129.577,358.582,129.577z"/>
<g>
</g>
<g>
</g>
<g>
</g>
<g>
</g>
<g>
</g>
<g>
</g>
<g>
</g>
<g>
</g>
<g>
</g>
<g>
</g>
<g>
</g>
<g>
</g>
<g>
</g>
<g>
</g>
<g>
</g>
</svg>
