<?xml version="1.0" encoding="iso-8859-1"?>
<!-- Generator: Adobe Illustrator 19.0.0, SVG Export Plug-In . SVG Version: 6.00 Build 0)  -->
<svg version="1.1" id="Layer_1" xmlns="http://www.w3.org/2000/svg" xmlns:xlink="http://www.w3.org/1999/xlink" x="0px" y="0px"
	 viewBox="0 0 512 512" style="enable-background:new 0 0 512 512;" xml:space="preserve">
<path style="fill:#707070;" d="M140.634,484.49c-20.788-25.572-33.268-58.156-33.268-93.604
	c0-81.638,66.165-148.115,147.682-148.634c0.315-0.022,0.633-0.032,0.952-0.032c66.78,0,121.109-54.33,121.109-121.108
	C377.109,54.33,322.78,0.001,256,0.001c-141.16,0-256,114.842-256,256C0,355.681,57.272,442.229,140.634,484.49z"/>
<path style="fill:#74D6D0;" d="M371.376,27.519c20.784,25.57,33.26,58.15,33.26,93.593c0,81.637-66.165,148.113-147.683,148.632
	c-0.315,0.022-0.633,0.032-0.952,0.032c-66.78,0-121.108,54.331-121.108,121.111S189.222,511.994,256,511.994
	c0.036,0,0.07,0.005,0.106,0.005C397.216,511.941,512,397.123,512,256.001C512,156.324,454.732,69.781,371.376,27.519z"/>
<path style="fill:#CCF7F5;" d="M256.952,269.743c-0.315,0.022-0.633,0.032-0.952,0.032c-66.78,0-121.108,54.331-121.108,121.111
	S189.222,511.994,256,511.994c0.036,0,0.07,0.005,0.106,0.005L256.952,269.743z"/>
<path style="fill:#575757;" d="M256,0.001v242.218c66.78,0,121.11-54.33,121.11-121.108C377.109,54.33,322.78,0.001,256,0.001z"/>
<g>
	<circle style="fill:#E0E0E0;" cx="255.993" cy="122.533" r="38.054"/>
	<circle style="fill:#E0E0E0;" cx="256.723" cy="374.37" r="38.054"/>
</g>
<g>
	<path style="fill:#F4F4F4;" d="M256.721,336.312v76.108c-21.018,0-38.054-17.039-38.054-38.055
		C218.668,353.35,235.705,336.312,256.721,336.312z"/>
	<path style="fill:#F4F4F4;" d="M256,84.484v76.108c-21.018,0-38.054-17.039-38.054-38.055
		C217.945,101.521,234.982,84.484,256,84.484z"/>
</g>
<g>
</g>
<g>
</g>
<g>
</g>
<g>
</g>
<g>
</g>
<g>
</g>
<g>
</g>
<g>
</g>
<g>
</g>
<g>
</g>
<g>
</g>
<g>
</g>
<g>
</g>
<g>
</g>
<g>
</g>
</svg>
