<?xml version="1.0" encoding="iso-8859-1"?>
<!-- Generator: Adobe Illustrator 19.0.0, SVG Export Plug-In . SVG Version: 6.00 Build 0)  -->
<svg version="1.1" id="Capa_1" xmlns="http://www.w3.org/2000/svg" xmlns:xlink="http://www.w3.org/1999/xlink" x="0px" y="0px"
	 viewBox="0 0 56 56" style="enable-background:new 0 0 56 56;" xml:space="preserve">
<g>
	<path style="fill:#38454F;" d="M14,6h-3C8.875,6,8,3.828,8,4v40.831C8,47.133,9.867,49,12.169,49H14h34V6h-1H14z"/>
</g>
<polygon style="fill:#8697CB;" points="39,18 31,18 31,10 25,10 25,18 17,18 17,24 25,24 25.049,45 31,45 31,24 39,24 "/>
<path style="fill:#CBB292;" d="M48,6H11C9.35,6,8,4.65,8,3v0c0-1.65,1.35-3,3-3l37,0l0,0C46,1.5,46,4.5,48,6L48,6z"/>
<path style="fill:#CC4B4C;" d="M23,56l-3.038-3.038c-0.531-0.531-1.393-0.531-1.924,0L15,56v-7h8V56z"/>
<path style="fill:#7F6E5D;" d="M46.651,2H39c-0.553,0-1,0.448-1,1s0.447,1,1,1h7.651C46.47,3.344,46.47,2.656,46.651,2z"/>
<g>
</g>
<g>
</g>
<g>
</g>
<g>
</g>
<g>
</g>
<g>
</g>
<g>
</g>
<g>
</g>
<g>
</g>
<g>
</g>
<g>
</g>
<g>
</g>
<g>
</g>
<g>
</g>
<g>
</g>
</svg>
