<?xml version="1.0" encoding="iso-8859-1"?>
<!-- Generator: Adobe Illustrator 19.0.0, SVG Export Plug-In . SVG Version: 6.00 Build 0)  -->
<svg version="1.1" id="Layer_1" xmlns="http://www.w3.org/2000/svg" xmlns:xlink="http://www.w3.org/1999/xlink" x="0px" y="0px"
	 viewBox="0 0 511.998 511.998" style="enable-background:new 0 0 511.998 511.998;" xml:space="preserve">
<path style="fill:#C36F47;" d="M416.786,116.614c-8.043-6.619-18.525-9.326-28.84-7.465c-0.569,0.09-1.133,0.211-1.69,0.361
	c-17.337,4.664-35.819,5.114-54.951,1.332l-35.403-6.957c-5.585-1.099-11.346,0.763-15.234,4.924l-24.667,26.402l-7.26,7.77
	L52.705,352.815c-4.614,4.939-5.748,12.194-2.862,18.305c2.738,5.796,8.563,9.452,14.911,9.452c0.347,0,0.696-0.01,1.044-0.034
	l190.2-12.013l157.744-9.963c8.689-0.549,15.456-7.756,15.456-16.463V142.845C429.199,132.667,424.675,123.106,416.786,116.614z"/>
<path style="fill:#E27F52;" d="M255.999,135.212l-7.26,7.77L52.705,352.815c-4.614,4.939-5.748,12.194-2.862,18.305
	c2.738,5.796,8.563,9.452,14.911,9.452c0.347,0,0.696-0.01,1.044-0.034l190.2-12.013L255.999,135.212z"/>
<path style="fill:#8496B7;" d="M484.919,100.636c-4.488-10.497-12.735-16.716-23.223-17.509
	c-32.272-2.459-76.42,48.398-82.979,58.972c-15.445,24.902-26.98,64.512-17.934,96.87c0.538,1.924,1.152,3.831,1.826,5.673
	c6.013,16.393,21.568,26.577,38.089,26.576c4.622,0,9.323-0.798,13.909-2.48c19.809-7.266,29.87-27.586,24.465-49.417
	c-4.6-18.58-4.643-31.425-0.147-44.336c6.527-18.739,20.992-30.259,35.653-39.916C485.911,127.605,490.259,113.124,484.919,100.636z
	"/>
<path style="fill:#B7A982;" d="M510.206,152.119c-4.006-10.69-11.963-17.277-22.403-18.547
	c-32.121-3.908-78.539,44.877-85.571,55.142c-16.561,24.174-29.884,63.22-22.315,95.955c0.451,1.949,0.978,3.883,1.566,5.749
	c5.455,17.26,21.459,28.321,38.668,28.321c4.035,0,8.136-0.608,12.183-1.887c20.119-6.359,31.091-26.202,26.683-48.255
	c-3.752-18.77-3.211-31.604,1.867-44.297c7.369-18.422,22.345-29.274,37.429-38.255
	C509.971,179.104,514.972,164.836,510.206,152.119z"/>
<path style="fill:#3D3F4D;" d="M108.624,292.961l-55.917,59.854c-4.614,4.939-5.748,12.194-2.862,18.305
	c2.738,5.796,8.563,9.452,14.911,9.452c0.347,0,0.696-0.01,1.044-0.034l347.944-21.976c8.689-0.549,15.456-7.756,15.456-16.463
	v-23.361l-89.443-25.779L108.624,292.961L108.624,292.961z"/>
<path style="fill:#4B4D5E;" d="M108.624,292.961l-55.917,59.854c-4.614,4.939-5.748,12.194-2.862,18.305
	c2.738,5.796,8.563,9.452,14.911,9.452c0.347,0,0.696-0.01,1.044-0.034l190.2-12.013v-75.564H108.624V292.961z"/>
<path style="fill:#C36F47;" d="M461.909,309.128l-18.572-1.099c-104.598-6.216-224.982,4.887-314.102,28.965
	c-38.513,10.406-75.457,12.519-109.773,6.28c-4.814-0.873-9.775,0.431-13.53,3.564C2.176,349.973,0,354.855,0,359.746
	c0,38.028,30.934,69.211,68.962,69.211H437.63c21.857,0,39.955-18.269,39.955-40.126v-63.237
	C477.586,316.864,470.625,309.645,461.909,309.128z"/>
<path style="fill:#E27F52;" d="M254.057,313.911c-44.781,5.213-87.539,13.009-124.822,23.083
	c-38.513,10.406-75.457,12.519-109.773,6.28c-4.814-0.873-9.775,0.43-13.53,3.564C2.176,349.973,0,354.855,0,359.746
	c0,38.028,30.934,69.211,68.962,69.211h185.095V313.911z"/>
<g>
</g>
<g>
</g>
<g>
</g>
<g>
</g>
<g>
</g>
<g>
</g>
<g>
</g>
<g>
</g>
<g>
</g>
<g>
</g>
<g>
</g>
<g>
</g>
<g>
</g>
<g>
</g>
<g>
</g>
</svg>
